<?xml version="1.0" standalone="no"?>
<!DOCTYPE svg PUBLIC "-//W3C//DTD SVG 20010904//EN"
 "http://www.w3.org/TR/2001/REC-SVG-20010904/DTD/svg10.dtd">
<svg version="1.0" xmlns="http://www.w3.org/2000/svg"
 width="2000.000000pt" height="922.000000pt" viewBox="0 0 2000.000000 922.000000"
 preserveAspectRatio="xMidYMid meet">

<g transform="translate(0.000000,922.000000) scale(0.100000,-0.100000)"
fill="#000000" stroke="none">
<path d="M0 7720 l0 -1500 5200 0 5200 0 0 34 c0 19 -4 38 -10 41 -5 3 -10 22
-10 41 0 24 -5 34 -15 34 -11 0 -15 11 -15 39 0 25 -5 41 -15 45 -10 3 -15 19
-15 46 0 22 -4 40 -10 40 -5 0 -10 13 -10 29 0 17 -4 33 -10 36 -5 3 -10 26
-10 51 0 24 -4 44 -10 44 -5 0 -10 18 -10 40 0 22 -4 40 -10 40 -5 0 -10 13
-10 29 0 17 -4 33 -10 36 -5 3 -10 26 -10 51 0 24 -4 44 -10 44 -5 0 -10 14
-10 30 0 17 -4 30 -10 30 -5 0 -10 20 -10 44 0 25 -4 48 -10 51 -5 3 -10 21
-10 39 0 19 -7 39 -15 46 -8 7 -15 23 -15 37 0 13 -7 26 -15 29 -10 4 -15 20
-15 45 0 21 -4 39 -10 39 -5 0 -10 20 -10 44 0 25 -4 48 -10 51 -5 3 -10 19
-10 36 0 16 -4 29 -10 29 -5 0 -10 18 -10 40 0 22 -4 40 -10 40 -5 0 -10 18
-10 40 0 22 -4 40 -10 40 -5 0 -10 18 -10 40 0 22 -4 40 -10 40 -5 0 -10 18
-10 39 0 22 -4 43 -10 46 -5 3 -10 19 -10 34 0 16 -7 34 -15 41 -8 7 -15 27
-15 46 0 18 -4 36 -10 39 -5 3 -10 24 -10 46 0 21 -4 39 -10 39 -5 0 -10 15
-10 34 0 21 -6 36 -15 40 -10 3 -15 19 -15 46 0 22 -4 40 -10 40 -5 0 -10 18
-10 40 0 22 -4 40 -10 40 -5 0 -10 15 -10 34 0 19 -5 38 -10 41 -5 3 -10 24
-10 46 0 21 -4 39 -10 39 -5 0 -10 11 -10 24 0 13 -7 29 -15 36 -9 8 -15 30
-15 56 0 24 -4 44 -10 44 -5 0 -10 18 -10 40 0 22 -4 40 -10 40 -5 0 -10 13
-10 29 0 17 -4 33 -10 36 -5 3 -10 24 -10 45 0 21 -4 42 -10 45 -5 3 -10 24
-10 45 0 21 -4 42 -10 45 -5 3 -10 19 -10 36 0 16 -4 29 -10 29 -5 0 -10 15
-10 34 0 18 -7 39 -15 46 -8 7 -15 28 -15 46 0 19 -4 34 -9 34 -5 0 -11 10
-13 23 l-3 22 -4787 3 -4788 2 0 -1500z"/>
</g>
</svg>
